<svg id="svg" version="1.1" xmlns="http://www.w3.org/2000/svg" xmlns:xlink="http://www.w3.org/1999/xlink" width="400" height="386.50602409638554" viewBox="0, 0, 400,386.50602409638554"><g id="svgg"><path id="path0" d="M174.439 45.081 C 171.729 45.925,167.118 51.741,167.118 54.315 C 167.118 54.400,166.446 55.922,165.624 57.699 C 164.802 59.475,163.475 62.408,162.675 64.217 C 161.875 66.025,160.720 68.605,160.108 69.950 C 159.495 71.294,158.994 72.457,158.994 72.534 C 158.994 72.611,158.488 73.773,157.868 75.118 C 157.249 76.463,155.399 80.609,153.756 84.333 C 152.113 88.056,150.373 91.973,149.889 93.037 C 149.405 94.101,147.665 98.017,146.021 101.741 C 144.377 105.464,142.639 109.381,142.158 110.445 C 139.037 117.349,134.027 128.558,132.301 132.495 C 131.183 135.048,129.751 138.269,129.120 139.652 C 128.489 141.035,126.007 146.605,123.605 152.031 C 118.429 163.719,117.182 166.472,116.942 166.731 C 116.844 166.838,101.764 167.012,83.430 167.118 L 50.097 167.311 48.234 168.229 C 43.826 170.399,43.327 172.984,43.327 193.653 C 43.327 221.115,41.294 219.342,72.788 219.342 C 89.367 219.342,93.658 219.443,93.498 219.826 C 93.100 220.777,88.285 231.569,87.327 233.656 C 86.790 234.826,85.004 238.830,83.358 242.553 C 81.712 246.277,79.889 250.368,79.307 251.644 C 78.725 252.921,77.679 255.271,76.984 256.867 C 76.289 258.462,75.118 261.074,74.381 262.669 C 73.645 264.265,72.291 267.311,71.373 269.439 C 69.824 273.027,68.677 275.621,66.927 279.497 C 66.543 280.348,65.493 282.698,64.594 284.720 C 63.695 286.741,62.527 289.352,61.998 290.522 C 61.470 291.692,59.732 295.609,58.135 299.226 C 56.539 302.843,54.921 306.499,54.539 307.350 C 54.157 308.201,52.336 312.292,50.492 316.441 C 48.648 320.590,46.739 324.855,46.250 325.919 C 42.255 334.603,43.903 340.951,50.519 342.364 C 51.840 342.646,59.358 342.746,73.343 342.669 L 94.197 342.553 96.026 341.653 C 99.200 340.089,99.833 339.017,106.460 323.985 C 107.304 322.070,108.502 319.403,109.123 318.058 C 109.744 316.713,110.251 315.543,110.251 315.457 C 110.251 315.370,110.748 314.207,111.355 312.872 C 111.962 311.537,113.111 308.965,113.909 307.157 C 114.706 305.348,115.678 303.172,116.068 302.321 C 116.458 301.470,118.283 297.379,120.124 293.230 C 121.964 289.081,123.707 285.164,123.997 284.526 C 124.287 283.888,126.028 279.971,127.866 275.822 C 129.703 271.673,131.442 267.756,131.730 267.118 C 132.435 265.553,137.624 253.968,138.488 252.031 C 138.867 251.180,141.569 245.087,144.491 238.491 C 147.414 231.896,150.393 225.224,151.112 223.666 C 151.830 222.108,152.418 220.771,152.418 220.695 C 152.418 220.619,152.920 219.457,153.534 218.112 C 154.148 216.767,156.001 212.621,157.650 208.897 C 159.300 205.174,161.039 201.257,161.514 200.193 C 161.989 199.130,163.034 196.779,163.836 194.971 C 164.638 193.162,165.879 190.408,166.593 188.850 C 167.307 187.292,167.892 185.955,167.892 185.880 C 167.892 185.805,168.478 184.468,169.195 182.910 C 169.911 181.352,171.065 178.772,171.758 177.176 C 172.450 175.580,174.108 171.838,175.441 168.859 C 176.773 165.880,178.516 161.963,179.314 160.155 C 180.112 158.346,181.935 154.255,183.366 151.064 C 184.797 147.872,187.230 142.389,188.772 138.878 C 190.314 135.368,191.973 131.625,192.458 130.561 C 192.944 129.497,194.779 125.444,196.536 121.553 C 200.393 113.014,199.929 113.328,201.936 117.901 C 202.845 119.970,204.064 122.708,204.645 123.985 C 205.226 125.261,208.091 131.702,211.013 138.298 C 213.934 144.894,217.454 152.814,218.834 155.899 C 224.858 169.365,226.002 171.933,228.828 178.337 C 232.151 185.868,231.896 185.294,236.572 195.745 C 238.429 199.894,240.293 204.072,240.714 205.029 C 245.631 216.194,247.388 220.164,247.992 221.470 C 248.779 223.171,253.214 233.117,255.495 238.298 C 256.291 240.106,257.958 243.849,259.200 246.615 C 260.441 249.381,262.057 253.037,262.789 254.739 C 264.059 257.688,264.536 258.748,267.555 265.309 C 268.272 266.867,268.859 268.211,268.859 268.296 C 268.859 268.381,269.283 269.369,269.802 270.492 C 271.985 275.220,276.596 285.567,276.596 285.740 C 276.596 285.844,277.016 286.831,277.530 287.935 C 279.335 291.811,284.333 302.963,284.333 303.113 C 284.333 303.197,284.752 304.184,285.265 305.308 C 285.778 306.431,287.696 310.745,289.527 314.894 C 291.358 319.043,293.107 322.959,293.412 323.598 C 293.717 324.236,295.280 327.700,296.884 331.295 C 300.338 339.034,301.141 340.186,304.021 341.536 L 306.190 342.553 326.864 342.666 C 355.028 342.820,355.694 342.616,355.702 333.849 C 355.706 329.938,355.831 330.356,352.410 322.824 C 351.831 321.547,350.010 317.456,348.364 313.733 C 346.718 310.010,344.955 306.045,344.447 304.923 C 343.938 303.801,343.102 301.886,342.588 300.668 C 342.074 299.449,341.029 297.103,340.266 295.453 C 339.503 293.803,338.878 292.382,338.878 292.296 C 338.878 292.209,338.282 290.861,337.553 289.299 C 336.376 286.780,331.098 274.965,321.853 254.159 C 320.199 250.435,318.414 246.431,317.886 245.261 C 312.698 233.752,306.770 220.190,306.770 219.828 C 306.770 219.493,312.354 219.349,328.723 219.263 C 358.930 219.106,355.987 222.032,355.819 192.326 L 355.706 172.283 354.668 170.714 C 354.016 169.729,352.936 168.805,351.766 168.229 L 349.903 167.311 316.570 167.118 C 298.236 167.012,283.159 166.838,283.064 166.731 C 282.969 166.625,282.276 165.145,281.525 163.443 C 278.880 157.449,275.503 149.875,274.368 147.389 C 273.736 146.006,272.650 143.569,271.955 141.973 C 271.260 140.377,270.105 137.797,269.388 136.239 C 268.671 134.681,268.085 133.342,268.085 133.264 C 268.085 133.185,267.389 131.621,266.538 129.787 C 265.687 127.954,264.990 126.382,264.990 126.294 C 264.990 126.207,264.572 125.216,264.060 124.093 C 263.549 122.969,261.883 119.265,260.358 115.861 C 258.833 112.456,257.163 108.752,256.646 107.630 C 256.129 106.507,255.706 105.516,255.706 105.428 C 255.706 105.340,255.035 103.822,254.215 102.054 C 253.394 100.286,252.156 97.534,251.464 95.938 C 250.771 94.342,249.702 91.937,249.087 90.592 C 248.472 89.247,247.969 88.083,247.969 88.004 C 247.969 87.925,247.284 86.384,246.447 84.580 C 245.610 82.776,243.677 78.457,242.153 74.983 C 240.629 71.508,239.025 67.882,238.588 66.925 C 238.152 65.967,236.205 61.610,234.263 57.242 C 230.300 48.332,229.343 46.844,226.758 45.571 L 224.952 44.681 200.580 44.605 C 180.420 44.543,175.903 44.625,174.439 45.081 " stroke="none" fill="#04fcb4" fill-rule="evenodd"></path><path id="path1" d="" stroke="none" fill="#08fcb4" fill-rule="evenodd"></path><path id="path2" d="" stroke="none" fill="#08fcb4" fill-rule="evenodd"></path><path id="path3" d="" stroke="none" fill="#08fcb4" fill-rule="evenodd"></path><path id="path4" d="" stroke="none" fill="#08fcb4" fill-rule="evenodd"></path></g></svg>